<svg width="27" height="30" viewBox="0 0 27 30" fill="none" xmlns="http://www.w3.org/2000/svg">
<path d="M16.0668 29.6666C14.2445 29.6666 12.5334 29.2499 10.9334 28.4166C9.33343 27.5833 8.02232 26.4221 7.0001 24.9333L0.600098 15.5333L1.23343 14.8999C1.67788 14.4333 2.22788 14.1666 2.88343 14.0999C3.53899 14.0333 4.13343 14.1888 4.66676 14.5666L8.33343 17.0999V4.33325C8.33343 3.95547 8.46121 3.63881 8.71676 3.38325C8.97232 3.1277 9.28899 2.99992 9.66677 2.99992C10.0445 2.99992 10.3612 3.1277 10.6168 3.38325C10.8723 3.63881 11.0001 3.95547 11.0001 4.33325V22.2333L6.06676 18.7999L9.23343 23.3999C10.0112 24.5333 11.0001 25.4166 12.2001 26.0499C13.4001 26.6833 14.689 26.9999 16.0668 26.9999C18.3557 26.9999 20.3057 26.1944 21.9168 24.5833C23.5279 22.9721 24.3334 21.0221 24.3334 18.7333V5.66659C24.3334 5.28881 24.4612 4.97214 24.7168 4.71659C24.9723 4.46103 25.289 4.33325 25.6668 4.33325C26.0445 4.33325 26.3612 4.46103 26.6168 4.71659C26.8723 4.97214 27.0001 5.28881 27.0001 5.66659V18.7333C27.0001 21.7777 25.939 24.361 23.8168 26.4833C21.6945 28.6055 19.1112 29.6666 16.0668 29.6666ZM13.6668 14.9999V1.66659C13.6668 1.28881 13.7945 0.972141 14.0501 0.716585C14.3057 0.46103 14.6223 0.333252 15.0001 0.333252C15.3779 0.333252 15.6945 0.46103 15.9501 0.716585C16.2057 0.972141 16.3334 1.28881 16.3334 1.66659V14.9999H13.6668ZM19.0001 14.9999V2.99992C19.0001 2.62214 19.1279 2.30547 19.3834 2.04992C19.639 1.79436 19.9557 1.66659 20.3334 1.66659C20.7112 1.66659 21.0279 1.79436 21.2834 2.04992C21.539 2.30547 21.6668 2.62214 21.6668 2.99992V14.9999H19.0001Z" fill="#5F6368"/>
</svg>
