<svg width="25" height="24" viewBox="0 0 25 24" fill="none" xmlns="http://www.w3.org/2000/svg">
<path fill-rule="evenodd" clip-rule="evenodd" d="M20.66 12.1932C20.66 11.5905 20.6059 11.011 20.5055 10.4546H12.5V13.7425H17.0746C16.8775 14.8051 16.2786 15.7053 15.3784 16.308V18.4407H18.1255C19.7327 16.961 20.66 14.7819 20.66 12.1932Z" fill="#4285F4"/>
<path fill-rule="evenodd" clip-rule="evenodd" d="M12.5 20.5C14.795 20.5 16.7191 19.7389 18.1254 18.4407L15.3784 16.3079C14.6173 16.8179 13.6436 17.1193 12.5 17.1193C10.2861 17.1193 8.41224 15.6241 7.74383 13.615H4.90405V15.8173C6.30269 18.5952 9.17724 20.5 12.5 20.5Z" fill="#34A853"/>
<path fill-rule="evenodd" clip-rule="evenodd" d="M7.74387 13.6151C7.57387 13.1051 7.47728 12.5603 7.47728 12.0001C7.47728 11.4399 7.57387 10.8951 7.74387 10.3851V8.1828H4.90409C4.32841 9.3303 4 10.6285 4 12.0001C4 13.3717 4.32841 14.6699 4.90409 15.8174L7.74387 13.6151Z" fill="#FBBC05"/>
<path fill-rule="evenodd" clip-rule="evenodd" d="M12.5 6.88075C13.7479 6.88075 14.8684 7.30961 15.7493 8.15189L18.1873 5.71393C16.7152 4.34234 14.7911 3.50006 12.5 3.50006C9.17724 3.50006 6.30269 5.40484 4.90405 8.1828L7.74383 10.3851C8.41224 8.37598 10.2861 6.88075 12.5 6.88075Z" fill="#EA4335"/>
</svg>
