<svg width="22" height="21" viewBox="0 0 22 21" fill="none" xmlns="http://www.w3.org/2000/svg">
<path d="M4.3335 20.3333V17.6666H13.8002C15.2002 17.6666 16.4168 17.2221 17.4502 16.3333C18.4835 15.4444 19.0002 14.3333 19.0002 12.9999C19.0002 11.6666 18.4835 10.5555 17.4502 9.66659C16.4168 8.7777 15.2002 8.33325 13.8002 8.33325H5.40016L8.86683 11.7999L7.00016 13.6666L0.333496 6.99992L7.00016 0.333252L8.86683 2.19992L5.40016 5.66659H13.8002C15.9557 5.66659 17.8057 6.36659 19.3502 7.76659C20.8946 9.16659 21.6668 10.911 21.6668 12.9999C21.6668 15.0888 20.8946 16.8333 19.3502 18.2333C17.8057 19.6333 15.9557 20.3333 13.8002 20.3333H4.3335Z" fill="#5F6368"/>
</svg>
