<svg width="32" height="32" viewBox="0 0 32 32" fill="none" xmlns="http://www.w3.org/2000/svg">
<path d="M17.4002 29.3332V26.5999C18.1558 26.4888 18.8947 26.2888 19.6169 25.9999C20.3391 25.711 21.0225 25.3332 21.6669 24.8666L23.5336 26.7999C22.6002 27.511 21.6225 28.0832 20.6002 28.5166C19.578 28.9499 18.5113 29.2221 17.4002 29.3332ZM14.7336 29.3332C11.6669 28.9332 9.12245 27.6055 7.10023 25.3499C5.07801 23.0943 4.06689 20.4443 4.06689 17.3999C4.06689 15.7332 4.38356 14.1721 5.01689 12.7166C5.65023 11.261 6.50578 9.99435 7.58356 8.91657C8.66134 7.83879 9.92801 6.98324 11.3836 6.3499C12.8391 5.71657 14.4002 5.3999 16.0669 5.3999H16.2669L14.2002 3.33324L16.0669 1.3999L21.4002 6.73324L16.0669 12.0666L14.2002 10.1999L16.3336 8.06657H16.0669C13.4669 8.06657 11.2613 8.97213 9.45023 10.7832C7.63912 12.5943 6.73356 14.7999 6.73356 17.3999C6.73356 19.711 7.48912 21.7388 9.00023 23.4832C10.5113 25.2277 12.4225 26.2666 14.7336 26.5999V29.3332ZM25.4669 24.8666L23.5336 22.9999C24.0002 22.3555 24.378 21.6721 24.6669 20.9499C24.9558 20.2277 25.1558 19.4888 25.2669 18.7332H28.0002C27.8891 19.8443 27.6169 20.911 27.1836 21.9332C26.7502 22.9555 26.178 23.9332 25.4669 24.8666ZM28.0002 16.0666H25.2669C25.1558 15.311 24.9558 14.5721 24.6669 13.8499C24.378 13.1277 24.0002 12.4443 23.5336 11.7999L25.4669 9.93324C26.178 10.7999 26.7447 11.7555 27.1669 12.7999C27.5891 13.8443 27.8669 14.9332 28.0002 16.0666Z" fill="#5F6368"/>
</svg>
