<svg width="24" height="29" viewBox="0 0 24 29" fill="none" xmlns="http://www.w3.org/2000/svg">
<path d="M10.6669 28.3332C9.55578 28.2221 8.48912 27.9499 7.4669 27.5166C6.44467 27.0832 5.46689 26.511 4.53356 25.7999L6.40023 23.8666C7.04467 24.3332 7.72801 24.711 8.45023 24.9999C9.17245 25.2888 9.91134 25.4888 10.6669 25.5999V28.3332ZM13.3336 28.3332V25.5999C15.6447 25.2666 17.5558 24.2277 19.0669 22.4832C20.578 20.7388 21.3336 18.711 21.3336 16.3999C21.3336 13.7999 20.428 11.5943 18.6169 9.78324C16.8058 7.97213 14.6002 7.06657 12.0002 7.06657H11.7336L13.8669 9.1999L12.0002 11.0666L6.66689 5.73324L12.0002 0.399902L13.8669 2.33324L11.8002 4.3999H12.0002C13.6669 4.3999 15.228 4.71657 16.6836 5.3499C18.1391 5.98324 19.4058 6.83879 20.4836 7.91657C21.5613 8.99435 22.4169 10.261 23.0502 11.7166C23.6836 13.1721 24.0002 14.7332 24.0002 16.3999C24.0002 19.4443 22.9891 22.0943 20.9669 24.3499C18.9447 26.6055 16.4002 27.9332 13.3336 28.3332ZM2.60023 23.8666C1.88912 22.9332 1.31689 21.9555 0.883561 20.9332C0.450228 19.911 0.178006 18.8443 0.0668945 17.7332H2.80023C2.91134 18.4888 3.11134 19.2277 3.40023 19.9499C3.68912 20.6721 4.06689 21.3555 4.53356 21.9999L2.60023 23.8666ZM0.0668945 15.0666C0.200228 13.9332 0.478006 12.8443 0.900228 11.7999C1.32245 10.7555 1.88912 9.7999 2.60023 8.93324L4.53356 10.7999C4.06689 11.4443 3.68912 12.1277 3.40023 12.8499C3.11134 13.5721 2.91134 14.311 2.80023 15.0666H0.0668945Z" fill="#5F6368"/>
</svg>
