<svg width="22" height="21" viewBox="0 0 22 21" fill="none" xmlns="http://www.w3.org/2000/svg">
<path d="M8.20016 20.3333C6.04461 20.3333 4.19461 19.6333 2.65016 18.2333C1.10572 16.8333 0.333496 15.0888 0.333496 12.9999C0.333496 10.911 1.10572 9.16659 2.65016 7.76659C4.19461 6.36659 6.04461 5.66659 8.20016 5.66659H16.6002L13.1335 2.19992L15.0002 0.333252L21.6668 6.99992L15.0002 13.6666L13.1335 11.7999L16.6002 8.33325H8.20016C6.80016 8.33325 5.5835 8.7777 4.55016 9.66659C3.51683 10.5555 3.00016 11.6666 3.00016 12.9999C3.00016 14.3333 3.51683 15.4444 4.55016 16.3333C5.5835 17.2221 6.80016 17.6666 8.20016 17.6666H17.6668V20.3333H8.20016Z" fill="#5F6368"/>
</svg>
