<svg width="42" height="30" viewBox="0 0 42 30" fill="none" xmlns="http://www.w3.org/2000/svg">
<path d="M10.9168 29.6666C8.13627 29.6666 5.76058 28.7041 3.78975 26.7791C1.81891 24.8541 0.833496 22.5013 0.833496 19.7208C0.833496 17.3374 1.55155 15.2138 2.98766 13.3499C4.42377 11.486 6.30294 10.2944 8.62516 9.77492C9.38905 6.96381 10.9168 4.68742 13.2085 2.94575C15.5002 1.20409 18.0974 0.333252 21.0002 0.333252C24.5752 0.333252 27.6078 1.57839 30.0981 4.06867C32.5884 6.55895 33.8335 9.59159 33.8335 13.1666C35.9418 13.411 37.6911 14.3201 39.0814 15.8937C40.4717 17.4673 41.1668 19.3083 41.1668 21.4166C41.1668 23.7083 40.3647 25.6562 38.7606 27.2603C37.1564 28.8645 35.2085 29.6666 32.9168 29.6666H22.8335C21.8252 29.6666 20.962 29.3076 20.2439 28.5895C19.5259 27.8714 19.1668 27.0083 19.1668 25.9999V16.5583L16.2335 19.3999L13.6668 16.8333L21.0002 9.49992L28.3335 16.8333L25.7668 19.3999L22.8335 16.5583V25.9999H32.9168C34.2002 25.9999 35.2849 25.5569 36.171 24.6708C37.0571 23.7846 37.5002 22.6999 37.5002 21.4166C37.5002 20.1333 37.0571 19.0485 36.171 18.1624C35.2849 17.2763 34.2002 16.8333 32.9168 16.8333H30.1668V13.1666C30.1668 10.6305 29.2731 8.46867 27.4856 6.68117C25.6981 4.89367 23.5363 3.99992 21.0002 3.99992C18.4641 3.99992 16.3022 4.89367 14.5147 6.68117C12.7272 8.46867 11.8335 10.6305 11.8335 13.1666H10.9168C9.14461 13.1666 7.63211 13.793 6.37933 15.0458C5.12655 16.2985 4.50016 17.811 4.50016 19.5833C4.50016 21.3555 5.12655 22.868 6.37933 24.1208C7.63211 25.3735 9.14461 25.9999 10.9168 25.9999H15.5002V29.6666H10.9168Z" fill="#12141D" fill-opacity="0.5"/>
</svg>
